<?xml version="1.0" encoding="UTF-8"?>
<svg width="24px" height="24px" viewBox="0 0 24 24" version="1.1" xmlns="http://www.w3.org/2000/svg" xmlns:xlink="http://www.w3.org/1999/xlink">
    <!-- Generator: Sketch 40.2 (33826) - http://www.bohemiancoding.com/sketch -->
    <title>004 raining</title>
    <desc>Created with Sketch.</desc>
    <defs></defs>
    <g id="Page-1" stroke="none" stroke-width="1" fill="none" fill-rule="evenodd">
        <g id="icons" transform="translate(-288.000000, -1.000000)">
            <g id="004-raining" transform="translate(288.000000, 1.000000)">
                <rect id="bounds" fill="#9B9B9B" x="0" y="0" width="24" height="24"></rect>
                <path d="M7,10 C7,8.8954305 7.8954305,8 9,8 C9.49591825,8 9.94967955,8.18049533 10.2991742,8.47937624 C10.8976495,7.02439524 12.3291946,6 14,6 C16.209139,6 18,7.790861 18,10 C18,10.088264 17.9971412,10.1758604 17.9915112,10.2627015 C18.5941282,10.6059898 19,11.2522547 19,12 C19,13.1045695 18.1029399,14 16.9941413,14 L7.00585866,14 C5.89805351,14 5,13.1122704 5,12 C5,10.8973766 5.89390193,10.0031559 7,10.0000083 Z M8.5669873,15.8839746 L9.4330127,16.3839746 L8.4330127,18.1160254 L7.5669873,17.6160254 L8.5669873,15.8839746 Z M17.3169873,15.8169873 L18.1830127,16.3169873 L17.6830127,17.1830127 L16.8169873,16.6830127 L17.3169873,15.8169873 Z M12.0669873,15.0179492 L12.9330127,15.5179492 L10.9330127,18.9820508 L10.0669873,18.4820508 L12.0669873,15.0179492 Z M14.8169873,14.9509619 L15.6830127,15.4509619 L14.1830127,18.0490381 L13.3169873,17.5490381 L14.8169873,14.9509619 Z" id="Combined-Shape" fill="#FFFFFF"></path>
            </g>
        </g>
    </g>
</svg>