<?xml version="1.0" encoding="UTF-8"?>
<svg width="24px" height="24px" viewBox="0 0 24 24" version="1.1" xmlns="http://www.w3.org/2000/svg" xmlns:xlink="http://www.w3.org/1999/xlink">
    <!-- Generator: Sketch 40.2 (33826) - http://www.bohemiancoding.com/sketch -->
    <title>004 sunny</title>
    <desc>Created with Sketch.</desc>
    <defs></defs>
    <g id="Page-1" stroke="none" stroke-width="1" fill="none" fill-rule="evenodd">
        <g id="icons" transform="translate(-192.000000, -1.000000)">
            <g id="004-sunny" transform="translate(192.000000, 1.000000)">
                <rect id="bounds" fill="#9B9B9B" x="0" y="0" width="24" height="24"></rect>
                <path d="M11.5,4.50468445 C11.5,4.22595492 11.7319336,4 12,4 C12.2761424,4 12.5,4.21403503 12.5,4.50468445 L12.5,5.49531555 C12.5,5.77404508 12.2680664,6 12,6 C11.7238576,6 11.5,5.78596497 11.5,5.49531555 L11.5,4.50468445 Z M11.5,18.5046844 C11.5,18.2259549 11.7319336,18 12,18 C12.2761424,18 12.5,18.214035 12.5,18.5046844 L12.5,19.4953156 C12.5,19.7740451 12.2680664,20 12,20 C11.7238576,20 11.5,19.785965 11.5,19.4953156 L11.5,18.5046844 Z M6.34645816,7.05356494 C6.14936662,6.8564734 6.15359418,6.53269732 6.34314575,6.34314575 C6.5384079,6.1478836 6.84804477,6.14093798 7.05356494,6.34645816 L7.75404691,7.04694013 C7.95113844,7.24403166 7.94691089,7.56780774 7.75735931,7.75735931 C7.56209717,7.95262146 7.2524603,7.95956708 7.04694013,7.75404691 L6.34645816,7.05356494 Z M16.2459531,16.9530599 C16.0488616,16.7559683 16.0530891,16.4321923 16.2426407,16.2426407 C16.4379028,16.0473785 16.7475397,16.0404329 16.9530599,16.2459531 L17.6535418,16.9464351 C17.8506334,17.1435266 17.8464058,17.4673027 17.6568542,17.6568542 C17.4615921,17.8521164 17.1519552,17.859062 16.9464351,17.6535418 L16.2459531,16.9530599 Z M16.9464351,6.34645816 C17.1435266,6.14936662 17.4673027,6.15359418 17.6568542,6.34314575 C17.8521164,6.5384079 17.859062,6.84804477 17.6535418,7.05356494 L16.9530599,7.75404691 C16.7559683,7.95113844 16.4321923,7.94691089 16.2426407,7.75735931 C16.0473785,7.56209717 16.0404329,7.2524603 16.2459531,7.04694013 L16.9464351,6.34645816 Z M7.04694013,16.2459531 C7.24403166,16.0488616 7.56780774,16.0530891 7.75735931,16.2426407 C7.95262146,16.4379028 7.95956708,16.7475397 7.75404691,16.9530599 L7.05356494,17.6535418 C6.8564734,17.8506334 6.53269732,17.8464058 6.34314575,17.6568542 C6.1478836,17.4615921 6.14093798,17.1519552 6.34645816,16.9464351 L7.04694013,16.2459531 Z M19.4953156,11.5 C19.7740451,11.5 20,11.7319336 20,12 C20,12.2761424 19.785965,12.5 19.4953156,12.5 L18.5046844,12.5 C18.2259549,12.5 18,12.2680664 18,12 C18,11.7238576 18.214035,11.5 18.5046844,11.5 L19.4953156,11.5 Z M5.49531555,11.5 C5.77404508,11.5 6,11.7319336 6,12 C6,12.2761424 5.78596497,12.5 5.49531555,12.5 L4.50468445,12.5 C4.22595492,12.5 4,12.2680664 4,12 C4,11.7238576 4.21403503,11.5 4.50468445,11.5 L5.49531555,11.5 Z M12,16 C14.209139,16 16,14.209139 16,12 C16,9.790861 14.209139,8 12,8 C9.790861,8 8,9.790861 8,12 C8,14.209139 9.790861,16 12,16 Z" id="Combined-Shape" fill="#FFFFFF"></path>
            </g>
        </g>
    </g>
</svg>