<?xml version="1.0" encoding="UTF-8"?>
<svg width="24px" height="24px" viewBox="0 0 24 24" version="1.1" xmlns="http://www.w3.org/2000/svg" xmlns:xlink="http://www.w3.org/1999/xlink">
    <!-- Generator: Sketch 40.2 (33826) - http://www.bohemiancoding.com/sketch -->
    <title>006 settings 2</title>
    <desc>Created with Sketch.</desc>
    <defs></defs>
    <g id="dark-icons" stroke="none" stroke-width="1" fill="none" fill-rule="evenodd">
        <g id="icons" transform="translate(-48.000000, -48.000000)">
            <g id="006-settings-2" transform="translate(48.000000, 48.000000)">
                <rect id="bounds" fill="#9B9B9B" x="0" y="0" width="24" height="24"></rect>
                <path d="M16.4404434,14.9297166 C15.5021111,16.3574108 13.8861342,17.3000031 12.0500031,17.3000031 C10.2431651,17.3000031 8.64951279,16.3872466 7.70498797,14.9976755 L12.1315699,12.4419873 L16.4404434,14.9297166 Z M16.9077505,14.044816 C17.1605768,13.429794 17.3000031,12.7561809 17.3000031,12.0500031 C17.3000031,9.3020934 15.1888419,7.04727184 12.5,6.81901874 L12.5,11.5 L16.9077505,14.044816 Z M7.22411308,14.1206083 C6.95116674,13.4853001 6.80000305,12.7853046 6.80000305,12.0500031 C6.80000305,9.3362533 8.85900176,7.10340847 11.5,6.82846773 L11.5,11.6519238 L7.22411308,14.1206083 Z M12.966688,5.86675187 L12.5,4 L11.5,4 L11.0292641,5.88294371 C10.5988172,5.95365327 10.1831791,6.0683403 9.78711633,6.22223821 L8.4330127,4.82179677 L7.5669873,5.32179677 L8.10489944,7.20220786 C7.77422312,7.47163623 7.47163623,7.77422312 7.20220786,8.10489944 L5.32179677,7.5669873 L4.82179677,8.4330127 L6.22223821,9.78711633 C6.0683403,10.1831791 5.95365327,10.5988172 5.88294371,11.0292641 L4,11.5 L4,12.5 L5.86675187,12.966688 C5.93157453,13.4077287 6.0424639,13.8337888 6.19437576,14.2398242 L4.82179677,15.5669873 L5.32179677,16.4330127 L7.13703196,15.9137448 C7.41634776,16.2684206 7.73324526,16.5921138 8.08172045,16.8788203 L7.5669873,18.6782032 L8.4330127,19.1782032 L9.71717126,17.8501004 C10.1420916,18.0211666 10.5901388,18.1468923 11.0553216,18.2212862 L11.5,20 L12.5,20 L12.9407472,18.2370113 C13.4167175,18.1690951 13.8754015,18.0475537 14.3104841,17.8787021 L15.5669873,19.1782032 L16.4330127,18.6782032 L15.9370719,16.9445138 C16.3098803,16.6480456 16.6480456,16.3098803 16.9445138,15.9370719 L18.6782032,16.4330127 L19.1782032,15.5669873 L17.8787021,14.3104841 C18.0475537,13.8754015 18.1690951,13.4167175 18.2370113,12.9407472 L20,12.5 L20,11.5 L18.2212862,11.0553216 C18.1468923,10.5901388 18.0211666,10.1420916 17.8501004,9.71717126 L19.1782032,8.4330127 L18.6782032,7.5669873 L16.8788203,8.08172045 C16.5921138,7.73324526 16.2684206,7.41634776 15.9137448,7.13703196 L16.4330127,5.32179677 L15.5669873,4.82179677 L14.2398242,6.19437576 C13.8337888,6.0424639 13.4077287,5.93157453 12.966688,5.86675187 Z" id="Combined-Shape" fill="#FFFFFF" transform="translate(12.000000, 12.000000) rotate(90.000000) translate(-12.000000, -12.000000) "></path>
            </g>
        </g>
    </g>
</svg>