<?xml version="1.0" encoding="UTF-8"?>
<svg width="24px" height="24px" viewBox="0 0 24 24" version="1.1" xmlns="http://www.w3.org/2000/svg" xmlns:xlink="http://www.w3.org/1999/xlink">
    <!-- Generator: Sketch 40.2 (33826) - http://www.bohemiancoding.com/sketch -->
    <title>006 settings 1</title>
    <desc>Created with Sketch.</desc>
    <defs></defs>
    <g id="dark-icons" stroke="none" stroke-width="1" fill="none" fill-rule="evenodd">
        <g id="icons" transform="translate(0.000000, -48.000000)">
            <g id="006-settings-1" transform="translate(0.000000, 48.000000)">
                <rect id="bounds" fill="#9B9B9B" x="0" y="0" width="24" height="24"></rect>
                <path d="M13.2983758,19.7903474 C14.109857,19.6579099 14.880314,19.4033838 15.5902744,19.0462413 L15.5683495,18.2539455 C15.5454508,17.4264559 16.161643,16.9751788 16.9448707,17.2538443 L17.6898049,17.5188854 C18.2549627,16.9471272 18.7345639,16.2906176 19.1078334,15.5701314 L18.6244477,14.9421049 C18.119536,14.2861113 18.352792,13.5588317 19.150232,13.3239072 L19.9098534,13.100124 C19.9692223,12.7071202 20,12.3047412 20,11.8951737 C20,11.4856062 19.9692223,11.0832272 19.9098534,10.6902234 L19.150232,10.4664402 C18.3561665,10.2325098 18.1173903,9.50702388 18.6244477,8.84824246 L19.1078334,8.22021598 C18.7345639,7.49972985 18.2549627,6.84322016 17.6898049,6.27146198 L16.9448707,6.53650306 C16.1649574,6.81398942 15.5453535,6.36740809 15.5683495,5.53640187 L15.5902744,4.74410606 C14.880314,4.38696364 14.109857,4.13243746 13.2983758,4 L12.8507369,4.65339599 C12.3828761,5.33630873 11.6191121,5.33921088 11.1492631,4.65339599 L10.7016242,4 C9.89014297,4.13243746 9.11968596,4.38696364 8.40972563,4.74410606 L8.43165046,5.53640187 C8.45454919,6.36389153 7.83835697,6.81516864 7.05512926,6.53650306 L6.31019508,6.27146198 C5.74503727,6.84322016 5.2654361,7.49972985 4.89216665,8.22021598 L5.37555227,8.84824246 C5.88046396,9.50423612 5.64720801,10.2315157 4.84976796,10.4664402 L4.09014656,10.6902234 C4.03077775,11.0832272 4,11.4856062 4,11.8951737 C4,12.3047412 4.03077775,12.7071202 4.09014656,13.100124 L4.84976796,13.3239072 C5.64383349,13.5578376 5.88260967,14.2833235 5.37555227,14.9421049 L4.89216665,15.5701314 C5.2654361,16.2906176 5.74503727,16.9471272 6.31019508,17.5188854 L7.05512926,17.2538443 C7.8350426,16.976358 8.45464651,17.4229393 8.43165046,18.2539455 L8.40972563,19.0462413 C9.11968596,19.4033838 9.89014297,19.6579099 10.7016242,19.7903474 L11.1492631,19.1369514 C11.6171239,18.4540387 12.3808879,18.4511365 12.8507369,19.1369514 L13.2983758,19.7903474 Z M12,17.228507 C14.9455187,17.228507 17.3333333,14.8406924 17.3333333,11.8951737 C17.3333333,8.94965504 14.9455187,6.56184037 12,6.56184037 C9.05448133,6.56184037 6.66666667,8.94965504 6.66666667,11.8951737 C6.66666667,14.8406924 9.05448133,17.228507 12,17.228507 Z" id="Combined-Shape" fill="#FFFFFF"></path>
            </g>
        </g>
    </g>
</svg>