<?xml version="1.0" encoding="UTF-8"?>
<svg width="24px" height="24px" viewBox="0 0 24 24" version="1.1" xmlns="http://www.w3.org/2000/svg" xmlns:xlink="http://www.w3.org/1999/xlink">
    <!-- Generator: Sketch 40.2 (33826) - http://www.bohemiancoding.com/sketch -->
    <title>007 chat</title>
    <desc>Created with Sketch.</desc>
    <defs></defs>
    <g id="dark-icons" stroke="none" stroke-width="1" fill="none" fill-rule="evenodd">
        <g id="icons" transform="translate(-96.000000, -48.000000)">
            <g id="007-chat" transform="translate(96.000000, 48.000000)">
                <rect id="bounds" fill="#9B9B9B" x="0" y="0" width="24" height="24"></rect>
                <path d="M12,18.9509906 C13.6510352,18.9509906 15.1982341,18.6064198 16.5284157,18.0049997 C16.8699303,17.8505894 18.5307255,19.2786227 19,18.9509906 C19.579982,18.6233585 18.2867173,16.9825442 18.6310071,16.6919245 C20.1020377,15.4502078 21,13.7941278 21,11.9754953 C21,8.12303562 16.9705627,5 12,5 C7.02943725,5 3,8.12303562 3,11.9754953 C3,15.827955 7.02943725,18.9509906 12,18.9509906 Z M8,13.5 C8.82842712,13.5 9.5,12.8284271 9.5,12 C9.5,11.1715729 8.82842712,10.5 8,10.5 C7.17157288,10.5 6.5,11.1715729 6.5,12 C6.5,12.8284271 7.17157288,13.5 8,13.5 Z M12,13.5 C12.8284271,13.5 13.5,12.8284271 13.5,12 C13.5,11.1715729 12.8284271,10.5 12,10.5 C11.1715729,10.5 10.5,11.1715729 10.5,12 C10.5,12.8284271 11.1715729,13.5 12,13.5 Z M16,13.5 C16.8284271,13.5 17.5,12.8284271 17.5,12 C17.5,11.1715729 16.8284271,10.5 16,10.5 C15.1715729,10.5 14.5,11.1715729 14.5,12 C14.5,12.8284271 15.1715729,13.5 16,13.5 Z" id="Combined-Shape" fill="#FFFFFF"></path>
            </g>
        </g>
    </g>
</svg>