<?xml version="1.0" encoding="UTF-8"?>
<svg width="24px" height="24px" viewBox="0 0 24 24" version="1.1" xmlns="http://www.w3.org/2000/svg" xmlns:xlink="http://www.w3.org/1999/xlink">
    <!-- Generator: Sketch 40.2 (33826) - http://www.bohemiancoding.com/sketch -->
    <title>008 camera</title>
    <desc>Created with Sketch.</desc>
    <defs></defs>
    <g id="dark-icons" stroke="none" stroke-width="1" fill="none" fill-rule="evenodd">
        <g id="icons" transform="translate(-144.000000, -49.000000)">
            <g id="008-camera" transform="translate(144.000000, 49.000000)">
                <rect id="bounds" fill="#9B9B9B" x="0" y="0" width="24" height="24"></rect>
                <path d="M4.88004949,7.71428571 C4.3919655,7.71428571 4,8.09899078 4,8.57354854 L4,17.1407372 C4,17.6093478 4.39534159,18 4.88302016,18 L19.1169798,18 C19.6044922,18 20,17.6152949 20,17.1407372 L20,8.57354854 C20,8.10493796 19.6045061,7.71428571 19.1166396,7.71428571 L16.4014136,7.71428571 C15.8524391,7.71428571 15.3320231,7.2781338 15.2566388,6.84198189 L15.2566388,6.84198189 C15.1766904,6.37942314 14.7119762,6 14.2196184,6 L9.78038163,6 C9.27811676,6 8.8237339,6.37696813 8.74336116,6.84198189 L8.74336116,6.84198189 C8.66009398,7.32374199 8.13736193,7.71428571 7.59769917,7.71428571 L4.88004949,7.71428571 Z M15.5555556,12.8571429 C15.5555556,10.9635951 13.9636791,9.42857143 12,9.42857143 C10.0363209,9.42857143 8.44444444,10.9635951 8.44444444,12.8571429 C8.44444444,14.7506906 10.0363209,16.2857143 12,16.2857143 C13.9636791,16.2857143 15.5555556,14.7506906 15.5555556,12.8571429 Z M13.7777778,12.8571429 C13.7777778,11.910369 12.9818396,11.1428571 12,11.1428571 C11.0181604,11.1428571 10.2222222,11.910369 10.2222222,12.8571429 C10.2222222,13.8039167 11.0181604,14.5714286 12,14.5714286 C12.9818396,14.5714286 13.7777778,13.8039167 13.7777778,12.8571429 Z" id="Combined-Shape" fill="#FFFFFF"></path>
            </g>
        </g>
    </g>
</svg>