<?xml version="1.0" encoding="UTF-8"?>
<svg width="24px" height="24px" viewBox="0 0 24 24" version="1.1" xmlns="http://www.w3.org/2000/svg" xmlns:xlink="http://www.w3.org/1999/xlink">
    <!-- Generator: Sketch 40.2 (33826) - http://www.bohemiancoding.com/sketch -->
    <title>009 ring bell</title>
    <desc>Created with Sketch.</desc>
    <defs></defs>
    <g id="dark-icons" stroke="none" stroke-width="1" fill="none" fill-rule="evenodd">
        <g id="icons" transform="translate(-192.000000, -49.000000)">
            <g id="009-ring-bell" transform="translate(192.000000, 49.000000)">
                <rect id="bounds" fill="#9B9B9B" x="0" y="0" width="24" height="24"></rect>
                <path d="M16.1426709,9.66666667 L16.1426709,13.7517759 C16.1426709,14.3072638 16.4539213,15.0688262 16.8525063,15.4674112 L17.1298052,15.7447101 C17.5218364,16.1367413 17.3884833,16.4545455 16.8472933,16.4545455 L6.95319999,16.4545455 C6.40514171,16.4545455 6.27210308,16.1432951 6.67068809,15.7447101 L6.94798698,15.4674112 C7.34001825,15.0753799 7.65782238,14.3057915 7.65782238,13.7517759 L7.65782238,9.66666667 C7.65782238,7.92582902 8.70634603,6.42988719 10.2063084,5.77592609 C10.2428013,5.34128571 10.6045044,5 11.0597111,5 L12.7407821,5 C13.1892616,5 13.5572274,5.33858358 13.5941669,5.77591828 C15.0941389,6.42987529 16.1426709,7.92582209 16.1426709,9.66666667 Z M13.5993847,17.3030303 C13.5993847,18.2402408 12.8396255,19 11.902415,19 C10.9652045,19 10.2054453,18.2402408 10.2054453,17.3030303 L13.5993847,17.3030303 Z" id="Combined-Shape" fill="#FFFFFF"></path>
            </g>
        </g>
    </g>
</svg>