<?xml version="1.0" encoding="UTF-8"?>
<svg width="24px" height="24px" viewBox="0 0 24 24" version="1.1" xmlns="http://www.w3.org/2000/svg" xmlns:xlink="http://www.w3.org/1999/xlink">
    <!-- Generator: Sketch 40.2 (33826) - http://www.bohemiancoding.com/sketch -->
    <title>010 volume</title>
    <desc>Created with Sketch.</desc>
    <defs></defs>
    <g id="dark-icons" stroke="none" stroke-width="1" fill="none" fill-rule="evenodd">
        <g id="icons" transform="translate(-240.000000, -49.000000)">
            <g id="010-volume" transform="translate(240.000000, 49.000000)">
                <rect id="bounds" fill="#9B9B9B" x="0" y="0" width="24" height="24"></rect>
                <path d="M16.1568542,17.6568542 C17.6045695,16.209139 18.5,14.209139 18.5,12 C18.5,9.790861 17.6045695,7.790861 16.1568542,6.34314575 L15.4497475,7.05025253 C16.7164983,8.31700338 17.5,10.0670034 17.5,12 C17.5,13.9329966 16.7164983,15.6829966 15.4497475,16.9497475 L16.1568542,17.6568542 L16.1568542,17.6568542 Z M14.7426407,16.2426407 C15.8284271,15.1568542 16.5,13.6568542 16.5,12 C16.5,10.3431458 15.8284271,8.84314575 14.7426407,7.75735931 L14.0355339,8.46446609 C14.9403559,9.36928813 15.5,10.6192881 15.5,12 C15.5,13.3807119 14.9403559,14.6307119 14.0355339,15.5355339 L14.7426407,16.2426407 L14.7426407,16.2426407 Z M13.3284271,14.8284271 C14.0522847,14.1045695 14.5,13.1045695 14.5,12 C14.5,10.8954305 14.0522847,9.8954305 13.3284271,9.17157288 L12.6213203,9.87867966 C13.1642136,10.4215729 13.5,11.1715729 13.5,12 C13.5,12.8284271 13.1642136,13.5784271 12.6213203,14.1213203 L13.3284271,14.8284271 L13.3284271,14.8284271 Z M5.5,10 L7.5,10 L7.5,14 L5.5,14 L5.5,10 L5.5,10 Z M7.5,10 L11.5,7 L11.5,17 L7.5,14 L7.5,10 L7.5,10 Z" id="Combined-Shape" fill="#FFFFFF"></path>
            </g>
        </g>
    </g>
</svg>