<?xml version="1.0" encoding="UTF-8"?>
<svg width="24px" height="24px" viewBox="0 0 24 24" version="1.1" xmlns="http://www.w3.org/2000/svg" xmlns:xlink="http://www.w3.org/1999/xlink">
    <!-- Generator: Sketch 40.2 (33826) - http://www.bohemiancoding.com/sketch -->
    <title>011 wifi</title>
    <desc>Created with Sketch.</desc>
    <defs></defs>
    <g id="dark-icons" stroke="none" stroke-width="1" fill="none" fill-rule="evenodd">
        <g id="icons" transform="translate(-288.000000, -48.000000)">
            <g id="011-wifi" transform="translate(288.000000, 48.000000)">
                <rect id="bounds" fill="#9B9B9B" x="0" y="0" width="24" height="24"></rect>
                <path d="M17.6637146,10.3431458 C16.2159994,8.8954305 14.2159994,8 12.0068604,8 C9.79772135,8 7.79772135,8.8954305 6.3500061,10.3431458 L6.88033619,10.8734758 C8.19232813,9.56148389 10.0048281,8.75 12.0068604,8.75 C14.0088926,8.75 15.8213926,9.56148389 17.1333845,10.8734758 L17.6637146,10.3431458 L17.6637146,10.3431458 Z M16.0727243,11.934136 C15.032179,10.8935907 13.594679,10.25 12.0068604,10.25 C10.4190417,10.25 8.9815417,10.8935907 7.94099636,11.934136 L8.47132645,12.4644661 C9.37614848,11.5596441 10.6261485,11 12.0068604,11 C13.3875722,11 14.6375722,11.5596441 15.5423943,12.4644661 L16.0727243,11.934136 L16.0727243,11.934136 Z M14.4817341,13.5251263 C13.8483587,12.8917508 12.9733587,12.5 12.0068604,12.5 C11.040362,12.5 10.165362,12.8917508 9.53198662,13.5251263 L10.0623167,14.0554564 C10.5599688,13.5578042 11.2474688,13.25 12.0068604,13.25 C12.7662519,13.25 13.4537519,13.5578042 13.951404,14.0554564 L14.4817341,13.5251263 L14.4817341,13.5251263 Z M12.8907438,15.1161165 C12.6645383,14.889911 12.3520383,14.75 12.0068604,14.75 C11.6616824,14.75 11.3491824,14.889911 11.1229769,15.1161165 L12.0068604,16 L12.8907438,15.1161165 L12.8907438,15.1161165 Z" id="Combined-Shape" fill="#FFFFFF"></path>
            </g>
        </g>
    </g>
</svg>