<?xml version="1.0" encoding="UTF-8"?>
<svg width="24px" height="24px" viewBox="0 0 24 24" version="1.1" xmlns="http://www.w3.org/2000/svg" xmlns:xlink="http://www.w3.org/1999/xlink">
    <!-- Generator: Sketch 40.2 (33826) - http://www.bohemiancoding.com/sketch -->
    <title>013 folder</title>
    <desc>Created with Sketch.</desc>
    <defs></defs>
    <g id="dark-icons" stroke="none" stroke-width="1" fill="none" fill-rule="evenodd">
        <g id="icons" transform="translate(0.000000, -96.000000)">
            <g id="013-folder" transform="translate(0.000000, 96.000000)">
                <rect id="bounds" fill="#9B9B9B" x="0" y="0" width="24" height="24"></rect>
                <path d="M4.00307192,10.4966988 C3.97239216,10.2223796 4.17518535,10 4.44716924,10 L19.5527816,10 C19.8287295,10 20.0275482,10.2224731 19.9968789,10.4966988 L19.1014234,18.5033012 C19.0707436,18.7776204 18.8245243,19 18.5443383,19 L5.4556125,19 C5.17862268,19 4.92919675,18.7775269 4.89852745,18.5033012 L4.00307192,10.4966988 Z M5.9475213,5.49047852 C5.9475213,5.21959471 6.16558855,5 6.44486441,5 L9.50616103,5 C9.78083604,5 10.1626372,5.15693665 10.3567533,5.34837341 L11.6782464,6.65162659 C11.8733405,6.84402791 12.2625654,7 12.5293727,7 L17.6175927,7 C17.8925626,7 18.1154698,7.21403503 18.1154698,7.50468445 L18.1154698,8.49531555 C18.1154698,8.77404508 17.8832642,9 17.6234013,9 L6.43958979,9 C6.16782787,9 5.9475213,8.78494263 5.9475213,8.50952148 L5.9475213,5.49047852 Z" id="Combined-Shape" fill="#FFFFFF"></path>
            </g>
        </g>
    </g>
</svg>