<?xml version="1.0" encoding="UTF-8"?>
<svg width="24px" height="24px" viewBox="0 0 24 24" version="1.1" xmlns="http://www.w3.org/2000/svg" xmlns:xlink="http://www.w3.org/1999/xlink">
    <!-- Generator: Sketch 40.2 (33826) - http://www.bohemiancoding.com/sketch -->
    <title>014 envelope</title>
    <desc>Created with Sketch.</desc>
    <defs></defs>
    <g id="dark-icons" stroke="none" stroke-width="1" fill="none" fill-rule="evenodd">
        <g id="icons" transform="translate(-48.000000, -96.000000)">
            <g id="014-envelope" transform="translate(48.000000, 96.000000)">
                <rect id="bounds" fill="#9B9B9B" x="0" y="0" width="24" height="24"></rect>
                <path d="M20,7 L12.4301147,11.7311783 C12.1977539,11.8764038 11.8074311,11.8796444 11.5698853,11.7311783 L4,7 L5.6,7 L11.5698853,10.7311783 C11.8074311,10.8796444 12.1977539,10.8764038 12.4301147,10.7311783 L18.4,7 L20,7 Z M18.4,7 L19.5698853,6.26882172 C19.8074311,6.12035558 19.773819,6 19.5036068,6 L4.4963932,6 C4.22224281,6 4.19775391,6.12359619 4.43011475,6.26882172 L5.6,7 L4,7 L4,17.4987692 C4,17.7702494 4.22224281,18 4.4963932,18 L19.5036068,18 C19.773819,18 20,17.7755913 20,17.4987692 L20,7 L18.4,7 L18.4,7 Z" id="Combined-Shape" fill="#FFFFFF"></path>
            </g>
        </g>
    </g>
</svg>