<?xml version="1.0" encoding="UTF-8"?>
<svg width="24px" height="24px" viewBox="0 0 24 24" version="1.1" xmlns="http://www.w3.org/2000/svg" xmlns:xlink="http://www.w3.org/1999/xlink">
    <!-- Generator: Sketch 40.2 (33826) - http://www.bohemiancoding.com/sketch -->
    <title>015 flag</title>
    <desc>Created with Sketch.</desc>
    <defs></defs>
    <g id="dark-icons" stroke="none" stroke-width="1" fill="none" fill-rule="evenodd">
        <g id="icons" transform="translate(-96.000000, -97.000000)">
            <g id="015-flag" transform="translate(96.000000, 97.000000)">
                <rect id="bounds" fill="#9B9B9B" x="0" y="0" width="24" height="24"></rect>
                <path d="M5,4 L6,4 L6,20 L5,20 L5,4 Z M13,5 C13,5 14.5,6 16,6 C17.5,6 19,5 19,5 L19,13 C19,13 17.5,14 16,14 C14.5,14 13,13 13,13 L13,5 Z M7,13 C7,13 8.5,12 10,12 C11.5,12 13,13 13,13 L13,5 C13,5 11.5,4 10,4 C8.5,4 7,5 7,5 L7,13 Z" id="Combined-Shape" fill="#FFFFFF"></path>
            </g>
        </g>
    </g>
</svg>