<?xml version="1.0" encoding="UTF-8"?>
<svg width="24px" height="24px" viewBox="0 0 24 24" version="1.1" xmlns="http://www.w3.org/2000/svg" xmlns:xlink="http://www.w3.org/1999/xlink">
    <!-- Generator: Sketch 40.2 (33826) - http://www.bohemiancoding.com/sketch -->
    <title>016 wrench</title>
    <desc>Created with Sketch.</desc>
    <defs></defs>
    <g id="dark-icons" stroke="none" stroke-width="1" fill="none" fill-rule="evenodd">
        <g id="icons" transform="translate(-144.000000, -97.000000)">
            <g id="016-wrench" transform="translate(144.000000, 97.000000)">
                <rect id="bounds" fill="#9B9B9B" x="0" y="0" width="24" height="24"></rect>
                <path d="M13.0426457,11.3517531 C14.7461932,10.8601725 16,9.19305046 16,7.21209334 C16,5.62539247 15.1956027,4.24003684 14,3.49883843 L14,7.21209334 L12,8.28377961 L10,7.21209334 L10,3.49883843 C8.80439726,4.24003684 8,5.62539247 8,7.21209334 C8,9.19305046 9.25380676,10.8601725 10.9573543,11.3517531 L10.5497699,19.5034409 C10.5227832,20.043174 10.9472481,20.4988384 11.4989566,20.4988384 L12.5010434,20.4988384 C13.0573397,20.4988384 13.4777173,20.0531838 13.4502301,19.5034409 L13.0426457,11.3517531 Z M12,19.4988384 C12.2761424,19.4988384 12.5,19.2749808 12.5,18.9988384 C12.5,18.7226961 12.2761424,18.4988384 12,18.4988384 C11.7238576,18.4988384 11.5,18.7226961 11.5,18.9988384 C11.5,19.2749808 11.7238576,19.4988384 12,19.4988384 Z" id="Combined-Shape" fill="#FFFFFF" transform="translate(12.000000, 11.998838) rotate(-45.000000) translate(-12.000000, -11.998838) "></path>
            </g>
        </g>
    </g>
</svg>