<?xml version="1.0" encoding="UTF-8"?>
<svg width="24px" height="24px" viewBox="0 0 24 24" version="1.1" xmlns="http://www.w3.org/2000/svg" xmlns:xlink="http://www.w3.org/1999/xlink">
    <!-- Generator: Sketch 40.2 (33826) - http://www.bohemiancoding.com/sketch -->
    <title>017 debate</title>
    <desc>Created with Sketch.</desc>
    <defs></defs>
    <g id="dark-icons" stroke="none" stroke-width="1" fill="none" fill-rule="evenodd">
        <g id="icons" transform="translate(-192.000000, -97.000000)">
            <g id="017-debate" transform="translate(192.000000, 97.000000)">
                <rect id="bounds" fill="#9B9B9B" x="0" y="0" width="24" height="24"></rect>
                <path d="M13.5909903,3.53661165 C13.298097,3.24371843 12.8232233,3.24371843 12.5303301,3.53661165 C12.2374369,3.82950487 12.2374369,4.30437861 12.5303301,4.59727182 C12.669138,4.73607978 12.8488189,4.80910387 13.0306316,4.81634409 L14.2192294,5.81875801 C14.4569057,6.01920436 14.8094653,6.10568878 15,6.00628157 C15.0649815,5.88173096 15.0154501,5.46618395 14.8124764,5.22551093 L13.8100625,4.03691318 C13.8028223,3.85510043 13.7297982,3.67541961 13.5909903,3.53661165 Z M9.02915448,17.9130435 C8.44482482,17.9130435 7.97760377,18.3802246 7.97760377,18.9565217 L7.97760377,19.494806 C7.97760377,19.7766591 8.20287557,20 8.48076242,20 L15.5179723,20 C15.7890784,20 16.021131,19.773817 16.021131,19.494806 L16.021131,18.9565217 C16.021131,18.3762068 15.5503357,17.9130435 14.9695803,17.9130435 L14.103599,17.9130435 L14.9993027,10.5841516 C15.0327788,10.3102407 14.8357892,10.0869565 14.5591278,10.0869565 L9.43960849,10.0869565 C9.17115995,10.0869565 8.96587411,10.3095583 8.99943364,10.5841516 L9.8951373,17.9130435 L9.02915448,17.9130435 Z M6.38423013,8 L17.6146994,8 C17.8875951,8 18.0540765,8.22440769 17.9920173,8.4788009 L17.2073982,11.6951121 C17.1428895,11.9595466 16.8652306,12.173913 16.5904869,12.173913 L15.5632558,12.173913 L15.9112822,10.0339674 C16.0002479,9.48693535 15.6344148,9.04347826 15.0735328,9.04347826 L8.92539673,9.04347826 C8.37375487,9.04347826 7.99735076,9.4787518 8.08764732,10.0339674 L8.43567378,12.173913 L7.40844269,12.173913 C7.13224072,12.173913 6.85359053,11.9495053 6.79153131,11.6951121 L6.00691225,8.4788009 C5.94240348,8.21436646 6.12328311,8 6.38423013,8 Z M11.408384,13.5398438 L11.5212518,12.8568784 L11.0431362,12.3731997 L11.7038757,12.2735564 L11.9993674,11.6521739 L12.294859,12.2735564 L12.9555985,12.3731997 L12.4774829,12.8568784 L12.5903507,13.5398438 L11.9993674,13.2173913 L11.408384,13.5398438 Z M11.408384,17.7137569 L11.5212518,17.0307915 L11.0431362,16.5471127 L11.7038757,16.4474694 L11.9993674,15.826087 L12.294859,16.4474694 L12.9555985,16.5471127 L12.4774829,17.0307915 L12.5903507,17.7137569 L11.9993674,17.3913043 L11.408384,17.7137569 Z M11.408384,15.6268003 L11.5212518,14.943835 L11.0431362,14.4601562 L11.7038757,14.3605129 L11.9993674,13.7391304 L12.294859,14.3605129 L12.9555985,14.4601562 L12.4774829,14.943835 L12.5903507,15.6268003 L11.9993674,15.3043478 L11.408384,15.6268003 Z" id="Combined-Shape" fill="#FFFFFF"></path>
                <path d="M14.7999878,5.79998779 C14.7999878,5.79998779 15.2608769,6.1072472 15.5599976,6.721766 C15.696875,7.01243138 15.7999878,7.37183864 15.7999878,8.29998779 C15.7999878,8.09997559 15.8706254,7.42124349 15.5599976,6.72000122 C15.2493697,6.17873209 14.7999878,5.79998779 14.7999878,5.79998779 Z" id="Path-3" stroke="#FFFFFF" stroke-width="0.2" stroke-linecap="round"></path>
            </g>
        </g>
    </g>
</svg>