<?xml version="1.0" encoding="UTF-8"?>
<svg width="24px" height="24px" viewBox="0 0 24 24" version="1.1" xmlns="http://www.w3.org/2000/svg" xmlns:xlink="http://www.w3.org/1999/xlink">
    <!-- Generator: Sketch 40.2 (33826) - http://www.bohemiancoding.com/sketch -->
    <title>018 avatar</title>
    <desc>Created with Sketch.</desc>
    <defs></defs>
    <g id="dark-icons" stroke="none" stroke-width="1" fill="none" fill-rule="evenodd">
        <g id="icons" transform="translate(-240.000000, -97.000000)">
            <g id="018-avatar" transform="translate(240.000000, 97.000000)">
                <rect id="bounds" fill="#9B9B9B" x="0" y="0" width="24" height="24"></rect>
                <path d="M8.57833392,8.48993723 C8.19650161,8.58304447 7.91331991,8.92430475 7.91331991,9.33104108 C7.91331991,9.72084804 8.17341875,10.0505161 8.53118152,10.1592423 C8.82445949,12.4564977 10.9134302,14.2395543 11.9966532,14.2395543 C13.0798763,14.2395543 15.168847,12.4564977 15.462125,10.1592423 C15.8198877,10.0505161 16.0799866,9.72084804 16.0799866,9.33104108 C16.0799866,8.92430475 15.7968049,8.58304447 15.4149726,8.48993723 C15.1129732,6.4846704 13.9735334,5 11.9966532,5 C10.019773,5 8.88033326,6.4846704 8.57833392,8.48993723 L8.57833392,8.48993723 Z M9.22876215,13.4403743 L8.36567116,13.8675837 C7.79450544,14.1502971 7.32998657,14.9021535 7.32998657,15.5459877 L7.32998657,17.8342352 C7.32998657,18.4879518 7.85076977,19 8.4931884,19 L15.5001181,19 C16.1347775,19 16.6633199,18.4780693 16.6633199,17.8342352 L16.6633199,15.5459877 C16.6633199,14.8922711 16.1996281,14.1507065 15.6276353,13.8675837 L14.7645443,13.4403743 C13.8765089,14.7769784 12.7358554,15.6209233 11.9966532,15.6209233 C11.2574511,15.6209233 10.1167976,14.7769784 9.22876215,13.4403743 L9.22876215,13.4403743 Z" id="Combined-Shape" fill="#FFFFFF"></path>
            </g>
        </g>
    </g>
</svg>