<?xml version="1.0" encoding="UTF-8"?>
<svg width="24px" height="24px" viewBox="0 0 24 24" version="1.1" xmlns="http://www.w3.org/2000/svg" xmlns:xlink="http://www.w3.org/1999/xlink">
    <!-- Generator: Sketch 40.2 (33826) - http://www.bohemiancoding.com/sketch -->
    <title>020 headphone</title>
    <desc>Created with Sketch.</desc>
    <defs></defs>
    <g id="dark-icons" stroke="none" stroke-width="1" fill="none" fill-rule="evenodd">
        <g id="icons" transform="translate(-336.000000, -96.000000)">
            <g id="020-headphone" transform="translate(336.000000, 96.000000)">
                <rect id="bounds" fill="#9B9B9B" x="0" y="0" width="24" height="24"></rect>
                <path d="M17.3657119,17.75 L18,17.75 C18.5522847,17.75 19,17.3073397 19,16.7510434 L19,16.0039343 L19,12.7450294 C19,8.875 15.8659932,5.75 12,5.75 C8.14187327,5.75 5,8.88178136 5,12.7450294 L5,16.0039343 L5,16.7510434 C5,17.3073397 5.44771525,17.75 6,17.75 L6.63428808,17.75 C6.80731678,18.0512479 7.13021951,18.25 7.5,18.25 C8.05613518,18.25 8.5,17.7980902 8.5,17.2406311 L8.5,15.2593689 C8.5,14.6933532 8.05228475,14.25 7.5,14.25 C7.12921061,14.25 6.80832793,14.4508842 6.6356281,14.75 L6,14.75 L6,12.7457395 C6,9.43438402 8.69303423,6.75 12,6.75 C15.3137085,6.75 18,9.42857143 18,12.7457395 L18,14.75 L17.3643719,14.75 C17.1916721,14.4508842 16.8707894,14.25 16.5,14.25 C15.9477153,14.25 15.5,14.6933532 15.5,15.2593689 L15.5,17.2406311 C15.5,17.7980902 15.9438648,18.25 16.5,18.25 C16.8697805,18.25 17.1926832,18.0512479 17.3657119,17.75 Z" id="Combined-Shape" fill="#FFFFFF"></path>
            </g>
        </g>
    </g>
</svg>