<?xml version="1.0" encoding="UTF-8"?>
<svg width="24px" height="24px" viewBox="0 0 24 24" version="1.1" xmlns="http://www.w3.org/2000/svg" xmlns:xlink="http://www.w3.org/1999/xlink">
    <!-- Generator: Sketch 40.2 (33826) - http://www.bohemiancoding.com/sketch -->
    <title>022 trash</title>
    <desc>Created with Sketch.</desc>
    <defs></defs>
    <g id="dark-icons" stroke="none" stroke-width="1" fill="none" fill-rule="evenodd">
        <g id="icons" transform="translate(-48.000000, -144.000000)">
            <g id="022-trash" transform="translate(48.000000, 144.000000)">
                <rect id="bounds" fill="#9B9B9B" x="0" y="0" width="24" height="24"></rect>
                <path d="M8,4.50468445 C8,4.22595492 8.23079681,4 8.50043583,4 L15.4995642,4 C15.7759472,4 16,4.21403503 16,4.50468445 L16,6 L8,6 L8,4.50468445 Z M9,5.5 C9,5.22385763 9.22788048,5 9.49100518,5 L14.5089948,5 C14.7801695,5 15,5.23193359 15,5.5 L15,6 L9,6 L9,5.5 Z M7.04169561,8.50034732 C7.01866776,8.22401312 7.22765279,8 7.50964952,8 L16.4903505,8 C16.7718221,8 16.9809166,8.22900057 16.9583044,8.50034732 L16.0416956,19.4996527 C16.0186678,19.7759869 15.7692032,20 15.4995642,20 L8.50043583,20 C8.22405275,20 7.98091662,19.7709994 7.95830439,19.4996527 L7.04169561,8.50034732 Z M5,6.5 C5,6.22385763 5.21990657,6 5.49826741,6 L18.5017326,6 C18.7769181,6 19,6.23193359 19,6.5 C19,6.77614237 18.7800934,7 18.5017326,7 L5.49826741,7 C5.22308192,7 5,6.76806641 5,6.5 Z" id="Combined-Shape" fill="#FFFFFF"></path>
            </g>
        </g>
    </g>
</svg>