<?xml version="1.0" encoding="UTF-8"?>
<svg width="24px" height="24px" viewBox="0 0 24 24" version="1.1" xmlns="http://www.w3.org/2000/svg" xmlns:xlink="http://www.w3.org/1999/xlink">
    <!-- Generator: Sketch 40.2 (33826) - http://www.bohemiancoding.com/sketch -->
    <title>023 command</title>
    <desc>Created with Sketch.</desc>
    <defs></defs>
    <g id="dark-icons" stroke="none" stroke-width="1" fill="none" fill-rule="evenodd">
        <g id="icons" transform="translate(-96.000000, -145.000000)">
            <g id="023-command" transform="translate(96.000000, 145.000000)">
                <rect id="bounds" fill="#9B9B9B" x="0" y="0" width="24" height="24"></rect>
                <path d="M9.40740741,13.8148148 L9.40740741,10.1851852 L7.00472798,10.1851852 C5.90319033,10.1851852 5,9.2876379 5,8.18045721 L5,7.00472798 C5,5.90319033 5.89754729,5 7.00472798,5 L8.18045721,5 C9.28199485,5 10.1851852,5.89754729 10.1851852,7.00472798 L10.1851852,9.40740741 L13.5555556,9.40740741 L13.5555556,7.00472798 C13.5555556,5.89754729 14.4587459,5 15.5602835,5 L16.7360128,5 C17.8431935,5 18.7407407,5.90319033 18.7407407,7.00472798 L18.7407407,8.18045721 C18.7407407,9.2876379 17.8375504,10.1851852 16.7360128,10.1851852 L14.5925926,10.1851852 L14.5925926,13.8148148 L16.995272,13.8148148 C18.0968097,13.8148148 19,14.7123621 19,15.8195428 L19,16.995272 C19,18.0968097 18.1024527,19 16.995272,19 L15.8195428,19 C14.7180051,19 13.8148148,18.1024527 13.8148148,16.995272 L13.8148148,14.5925926 L10.1851852,14.5925926 L10.1851852,16.995272 C10.1851852,18.1024527 9.28199485,19 8.18045721,19 L7.00472798,19 C5.89754729,19 5,18.0968097 5,16.995272 L5,15.8195428 C5,14.7123621 5.90319033,13.8148148 7.00472798,13.8148148 L9.40740741,13.8148148 Z M10.1851852,10.1851852 L13.8148148,10.1851852 L13.8148148,13.8148148 L10.1851852,13.8148148 L10.1851852,10.1851852 Z M14.3333333,7.59259259 C14.3333333,6.59029805 15.1388658,5.77777778 16.1481481,5.77777778 C17.1504427,5.77777778 17.962963,6.58331023 17.962963,7.59259259 C17.962963,8.59488714 17.1574305,9.40740741 16.1481481,9.40740741 L14.3333333,9.40740741 L14.3333333,7.59259259 Z M14.5925926,16.4074074 C14.5925926,17.409702 15.398125,18.2222222 16.4074074,18.2222222 C17.409702,18.2222222 18.2222222,17.4166898 18.2222222,16.4074074 C18.2222222,15.4051129 17.4166898,14.5925926 16.4074074,14.5925926 L14.5925926,14.5925926 L14.5925926,16.4074074 Z M9.40740741,7.59259259 C9.40740741,6.59029805 8.60187495,5.77777778 7.59259259,5.77777778 C6.59029805,5.77777778 5.77777778,6.58331023 5.77777778,7.59259259 C5.77777778,8.59488714 6.58331023,9.40740741 7.59259259,9.40740741 L9.40740741,9.40740741 L9.40740741,7.59259259 Z M9.40740741,16.4074074 C9.40740741,17.409702 8.60187495,18.2222222 7.59259259,18.2222222 C6.59029805,18.2222222 5.77777778,17.4166898 5.77777778,16.4074074 C5.77777778,15.4051129 6.58331023,14.5925926 7.59259259,14.5925926 L9.40740741,14.5925926 L9.40740741,16.4074074 Z" id="Combined-Shape" fill="#FFFFFF"></path>
            </g>
        </g>
    </g>
</svg>