<?xml version="1.0" encoding="UTF-8"?>
<svg width="24px" height="24px" viewBox="0 0 24 24" version="1.1" xmlns="http://www.w3.org/2000/svg" xmlns:xlink="http://www.w3.org/1999/xlink">
    <!-- Generator: Sketch 40.2 (33826) - http://www.bohemiancoding.com/sketch -->
    <title>024 plane</title>
    <desc>Created with Sketch.</desc>
    <defs></defs>
    <g id="dark-icons" stroke="none" stroke-width="1" fill="none" fill-rule="evenodd">
        <g id="icons" transform="translate(-144.000000, -145.000000)">
            <g id="024-plane" transform="translate(144.000000, 145.000000)">
                <rect id="bounds" fill="#9B9B9B" x="0" y="0" width="24" height="24"></rect>
                <path d="M12.69033,17.7419991 C13.222925,16.7845075 13.7908599,14.937886 13.9569661,12.7271782 L18.5017161,13.3764282 C18.7879668,13.4173211 19.0051388,13.2223908 19.0051388,12.9436612 L19.0051388,11.9530301 C19.0051388,11.6623807 18.7995079,11.3602182 18.5458493,11.2515073 L13.927917,9.27239347 C13.7174027,6.4717157 13.0764766,4.4483457 12.0051388,4.4483457 C10.933801,4.4483457 10.292875,6.4717157 10.0823607,9.27239347 L5.46442837,11.2515073 C5.20708603,11.3617969 5.00513882,11.6743006 5.00513882,11.9530301 L5.00513882,12.9436612 C5.00513882,13.2343107 5.23052886,13.4161471 5.50856156,13.3764282 L10.0533115,12.7271782 C10.2194178,14.937886 10.7873526,16.7845075 11.3199476,17.7419991 L9.28199429,18.6154076 C9.13404507,18.6788144 9.00513882,18.8726047 9.00513882,19.0435082 L9.00513882,19.2817546 C9.00513882,19.4572743 9.13883522,19.5721034 9.30375809,19.5485429 L12.0051388,19.1626314 L14.7065196,19.5485429 C14.8762326,19.5727877 15.0051388,19.4526581 15.0051388,19.2817546 L15.0051388,19.0435082 C15.0051388,18.8679886 14.8811864,18.6809375 14.7282834,18.6154076 L12.69033,17.7419991 Z" id="Combined-Shape" fill="#FFFFFF" transform="translate(12.005139, 12.000000) rotate(90.000000) translate(-12.005139, -12.000000) "></path>
            </g>
        </g>
    </g>
</svg>