<?xml version="1.0" encoding="UTF-8"?>
<svg width="24px" height="24px" viewBox="0 0 24 24" version="1.1" xmlns="http://www.w3.org/2000/svg" xmlns:xlink="http://www.w3.org/1999/xlink">
    <!-- Generator: Sketch 40.2 (33826) - http://www.bohemiancoding.com/sketch -->
    <title>025 home</title>
    <desc>Created with Sketch.</desc>
    <defs></defs>
    <g id="dark-icons" stroke="none" stroke-width="1" fill="none" fill-rule="evenodd">
        <g id="icons" transform="translate(-192.000000, -145.000000)">
            <g id="025-home" transform="translate(192.000000, 145.000000)">
                <rect id="bounds" fill="#9B9B9B" x="0" y="0" width="24" height="24"></rect>
                <path d="M5,10.3381482 C5,10.0566676 5.18723309,9.69474446 5.40660612,9.53804944 L11.5933939,5.11891533 C11.8179562,4.95851364 12.1872331,4.9622203 12.4066061,5.11891533 L18.5933939,9.53804944 C18.8179562,9.69845112 19,10.0509555 19,10.3381482 L19,18.3188165 C19,18.6002972 18.7849426,18.8284824 18.5095215,18.8284824 L15.4904785,18.8284824 C15.2195947,18.8284824 15,18.6006019 15,18.3374772 L15,13.3194876 C15,13.0483129 14.7721195,12.8284824 14.5089948,12.8284824 L9.49100518,12.8284824 C9.21983051,12.8284824 9,13.0563629 9,13.3194876 L9,18.3374772 C9,18.6086519 8.78494263,18.8284824 8.50952148,18.8284824 L5.49047852,18.8284824 C5.21959471,18.8284824 5,18.6060092 5,18.3188165 L5,10.3381482 Z" id="Rectangle-38" fill="#FFFFFF"></path>
            </g>
        </g>
    </g>
</svg>