<?xml version="1.0" encoding="UTF-8"?>
<svg width="24px" height="24px" viewBox="0 0 24 24" version="1.1" xmlns="http://www.w3.org/2000/svg" xmlns:xlink="http://www.w3.org/1999/xlink">
    <!-- Generator: Sketch 40.2 (33826) - http://www.bohemiancoding.com/sketch -->
    <title>026 clock</title>
    <desc>Created with Sketch.</desc>
    <defs></defs>
    <g id="dark-icons" stroke="none" stroke-width="1" fill="none" fill-rule="evenodd">
        <g id="icons" transform="translate(-240.000000, -145.000000)">
            <g id="026-clock" transform="translate(240.000000, 145.000000)">
                <rect id="bounds" fill="#9B9B9B" x="0" y="0" width="24" height="24"></rect>
                <path d="M11.999982,17.9426809 C15.2795256,17.9426809 17.9381211,15.2840855 17.9381211,12.0045418 C17.9381211,8.72499816 15.2795256,6.06640273 11.999982,6.06640273 C8.72043831,6.06640273 6.06184289,8.72499816 6.06184289,12.0045418 C6.06184289,15.2840855 8.72043831,17.9426809 11.999982,17.9426809 Z M11.999982,16.9529911 C14.732935,16.9529911 16.9484312,14.7374949 16.9484312,12.0045418 C16.9484312,9.27158877 14.732935,7.05609258 11.999982,7.05609258 C9.26702892,7.05609258 7.05153273,9.27158877 7.05153273,12.0045418 C7.05153273,14.7374949 9.26702892,16.9529911 11.999982,16.9529911 Z M9.23145539,5.65203125 L8.53507098,4.95564684 C7.95174164,4.3723175 7.01636519,4.37689648 6.4366183,4.95664337 C5.85282952,5.54043215 5.85642525,6.47589953 6.43562177,7.05509605 L6.80340829,7.42288257 C7.46910431,6.66842234 8.29653672,6.06005519 9.23145539,5.65203125 L9.23145539,5.65203125 Z M17.1965556,7.42288257 L17.5643422,7.05509605 C18.1476715,6.47176671 18.1430925,5.53639026 17.5633456,4.95664337 C16.9795569,4.37285459 16.0440895,4.37645032 15.464893,4.95564684 L14.7685086,5.65203125 C15.7034272,6.06005519 16.5308596,6.66842234 17.1965556,7.42288257 L17.1965556,7.42288257 Z M9.64604818,18.5222065 L8.81927766,19.348977 C8.62970873,19.5385459 8.31372181,19.529911 8.12612455,19.3423137 C7.93287558,19.1490647 7.92671702,18.8419048 8.11946126,18.6491606 L8.6813499,18.0872719 C8.9894638,18.2557304 9.31178139,18.40146 9.64604818,18.5222065 Z M15.318614,18.0872719 L15.8805027,18.6491606 C16.0700716,18.8387295 16.0614367,19.1547164 15.8738394,19.3423137 C15.6805904,19.5355627 15.3734305,19.5417212 15.1806863,19.348977 L14.3539158,18.5222065 C14.6881826,18.40146 15.0105001,18.2557304 15.318614,18.0872719 L15.318614,18.0872719 Z M11.505137,9.52089388 C11.505137,9.25280293 11.7346794,9.03547227 11.999982,9.03547227 C12.2732773,9.03547227 12.4948269,9.24831237 12.4948269,9.52089388 L12.4948269,12.9942317 L11.505137,12.9942317 L11.505137,9.52089388 Z M13.9747255,12.0045418 C14.2505813,12.0045418 14.4742066,12.2340841 14.4742066,12.4993867 C14.4742066,12.772682 14.2623783,12.9942317 13.9747255,12.9942317 L12.4948269,12.9942317 L12.4948269,12.0045418 L13.9747255,12.0045418 Z" id="Combined-Shape" fill="#FFFFFF"></path>
            </g>
        </g>
    </g>
</svg>