<?xml version="1.0" encoding="UTF-8"?>
<svg width="24px" height="24px" viewBox="0 0 24 24" version="1.1" xmlns="http://www.w3.org/2000/svg" xmlns:xlink="http://www.w3.org/1999/xlink">
    <!-- Generator: Sketch 40.2 (33826) - http://www.bohemiancoding.com/sketch -->
    <title>027 campass</title>
    <desc>Created with Sketch.</desc>
    <defs></defs>
    <g id="dark-icons" stroke="none" stroke-width="1" fill="none" fill-rule="evenodd">
        <g id="icons" transform="translate(-288.000000, -144.000000)">
            <g id="027-campass" transform="translate(288.000000, 144.000000)">
                <rect id="bounds" fill="#9B9B9B" x="0" y="0" width="24" height="24"></rect>
                <path d="M12,20 C16.418278,20 20,16.418278 20,12 C20,7.581722 16.418278,4 12,4 C7.581722,4 4,7.581722 4,12 C4,16.418278 7.581722,20 12,20 Z M9.64284612,10.2923796 C9.74533968,10.0361457 10.0324246,9.74682813 10.2923796,9.64284612 L16.4355424,7.185581 C16.6917763,7.08308745 16.8178959,7.20399749 16.7139139,7.46395251 L14.2566488,13.6071153 C14.1541553,13.8633492 13.8670703,14.1526668 13.6071153,14.2566488 L7.46395251,16.7139139 C7.20771861,16.8164075 7.081599,16.6954974 7.185581,16.4355424 L9.64284612,10.2923796 Z M12,13 C12.5522847,13 13,12.5522847 13,12 C13,11.4477153 12.5522847,11 12,11 C11.4477153,11 11,11.4477153 11,12 C11,12.5522847 11.4477153,13 12,13 Z" id="Combined-Shape" fill="#FFFFFF"></path>
            </g>
        </g>
    </g>
</svg>