<?xml version="1.0" encoding="UTF-8"?>
<svg width="24px" height="24px" viewBox="0 0 24 24" version="1.1" xmlns="http://www.w3.org/2000/svg" xmlns:xlink="http://www.w3.org/1999/xlink">
    <!-- Generator: Sketch 40.2 (33826) - http://www.bohemiancoding.com/sketch -->
    <title>028 refresh</title>
    <desc>Created with Sketch.</desc>
    <defs></defs>
    <g id="dark-icons" stroke="none" stroke-width="1" fill="none" fill-rule="evenodd">
        <g id="icons" transform="translate(-336.000000, -144.000000)">
            <g id="028-refresh" transform="translate(336.000000, 144.000000)">
                <rect id="bounds" fill="#9B9B9B" x="0" y="0" width="24" height="24"></rect>
                <path d="M13.6419739,6.61147938 C12.8448239,6.21990022 11.9480922,6 11,6 C7.6862915,6 5,8.6862915 5,12 C5,15.3137085 7.6862915,18 11,18 C14.3137085,18 17,15.3137085 17,12 C17,11.5452193 16.9494026,11.1022564 16.8535299,10.6764332 L16.8535299,10.6764332 L15.8787937,10.9008195 C15.9581353,11.2545096 16,11.6223658 16,12 C16,14.7614237 13.7614237,17 11,17 C8.23857625,17 6,14.7614237 6,12 C6,9.23857625 8.23857625,7 11,7 C11.7596769,7 12.4797837,7.16941959 13.1245984,7.47253672 L12.0853401,9.20215302 L15.9726406,9.204612 L14.1454924,5.77348382 L13.6419739,6.61147938 Z" id="Combined-Shape" fill="#FFFFFF"></path>
            </g>
        </g>
    </g>
</svg>