<?xml version="1.0" encoding="UTF-8"?>
<svg width="24px" height="24px" viewBox="0 0 24 24" version="1.1" xmlns="http://www.w3.org/2000/svg" xmlns:xlink="http://www.w3.org/1999/xlink">
    <!-- Generator: Sketch 40.2 (33826) - http://www.bohemiancoding.com/sketch -->
    <title>029 telephone</title>
    <desc>Created with Sketch.</desc>
    <defs></defs>
    <g id="dark-icons" stroke="none" stroke-width="1" fill="none" fill-rule="evenodd">
        <g id="icons" transform="translate(0.000000, -192.000000)">
            <g id="029-telephone" transform="translate(0.000000, 192.000000)">
                <rect id="bounds" fill="#9B9B9B" x="0" y="0" width="24" height="24"></rect>
                <path d="M4,11.9998075 C4,11.4476291 4.41158652,10.8082316 4.90607262,10.5952702 C4.90607262,10.5952702 8,9 12,9 C16,9 19.0939274,10.5952702 19.0939274,10.5952702 C19.5943375,10.8187963 20,11.4437166 20,11.9998075 L20,15.0001925 C20,15.5523709 19.5562834,15.9112567 19.0121609,15.8024322 L15.9878391,15.1975678 C15.4422706,15.0884541 15,14.5561352 15,14 L15,13 C15,13 14,12 12,12 C10,12 9,13 9,13 L9,14 C9,14.5522847 8.55628335,15.0887433 8.0121609,15.1975678 L4.9878391,15.8024322 C4.44227063,15.9115459 4,15.5562834 4,15.0001925 L4,11.9998075 Z" id="Rectangle-40" fill="#FFFFFF" transform="translate(12.000000, 12.411056) rotate(135.000000) translate(-12.000000, -12.411056) "></path>
            </g>
        </g>
    </g>
</svg>