<?xml version="1.0" encoding="UTF-8"?>
<svg width="24px" height="24px" viewBox="0 0 24 24" version="1.1" xmlns="http://www.w3.org/2000/svg" xmlns:xlink="http://www.w3.org/1999/xlink">
    <!-- Generator: Sketch 40.2 (33826) - http://www.bohemiancoding.com/sketch -->
    <title>030 download</title>
    <desc>Created with Sketch.</desc>
    <defs></defs>
    <g id="Page-1" stroke="none" stroke-width="1" fill="none" fill-rule="evenodd">
        <g id="icons" transform="translate(-336.000000, 0.000000)">
            <g id="030-download" transform="translate(336.000000, 0.000000)">
                <rect id="bounds" fill="#9B9B9B" x="0" y="0" width="24" height="24"></rect>
                <path d="M11.8846329,15.2926189 C11.7585343,15.2920227 11.6339056,15.2448183 11.5418942,15.1528069 L7.9936397,11.6045524 C7.80189025,11.412803 7.81044843,11.0933575 8,10.9038059 C8.19526215,10.7085438 8.51468922,10.7113884 8.70074648,10.8974456 L11.3890873,13.5857864 L11.3890873,5.50964952 C11.3890873,5.22817786 11.6210209,5 11.8890873,5 C12.1652297,5 12.3890873,5.22765279 12.3890873,5.50964952 L12.3890873,13.5857864 L15.0774281,10.8974456 C15.2691776,10.7056962 15.588623,10.7142543 15.7781746,10.9038059 C15.9734367,11.0990681 15.9705922,11.4184951 15.7845349,11.6045524 L12.2362804,15.1528069 C12.1414795,15.2476078 12.0154657,15.2934473 11.8893679,15.2926594 Z M7,18 C7,17.7238576 7.22765279,17.5 7.50964952,17.5 L16.4903505,17.5 C16.7718221,17.5 17,17.7319336 17,18 C17,18.2761424 16.7723472,18.5 16.4903505,18.5 L7.50964952,18.5 C7.22817786,18.5 7,18.2680664 7,18 Z" id="Combined-Shape" fill="#FFFFFF"></path>
            </g>
        </g>
    </g>
</svg>